<svg xmlns="http://www.w3.org/2000/svg">
  <symbol id="arrow-down" viewBox="0 0 24 24" fill="none" xmlns="http://www.w3.org/2000/svg">
    <path d="M18 9.00005C18 9.00005 13.5811 15 12 15C10.4188 15 6 9 6 9" stroke="currentColor" stroke-width="1.75" stroke-linecap="round" stroke-linejoin="round"/>
  </symbol>
  <symbol id="close" viewBox="0 0 24 24" fill="none" xmlns="http://www.w3.org/2000/svg">
    <path d="M18 6L6.00081 17.9992M17.9992 18L6 6.00085" stroke="currentColor" stroke-width="1.5" stroke-linecap="round" stroke-linejoin="round"/>
  </symbol>
  <symbol id="menu" viewBox="0 0 24 24" fill="none" xmlns="http://www.w3.org/2000/svg">
    <path d="M4 8.5H20M4 15.5H20" stroke="currentColor" stroke-width="1.5" stroke-linecap="round" stroke-linejoin="round"/>
  </symbol>
  <symbol id="arrow-left" viewBox="0 0 24 24" fill="none" xmlns="http://www.w3.org/2000/svg">
    <path d="M15 6C15 6 9.00001 10.4189 9 12C8.99999 13.5812 15 18 15 18" stroke="currentColor" stroke-width="1.75" stroke-linecap="round" stroke-linejoin="round"/>
  </symbol>
  <symbol id="arrow-right" viewBox="0 0 24 24" fill="none" xmlns="http://www.w3.org/2000/svg">
    <path d="M9.00005 6C9.00005 6 15 10.4189 15 12C15 13.5812 9 18 9 18" stroke="currentColor" stroke-width="1.75" stroke-linecap="round" stroke-linejoin="round"/>
  </symbol>
  <symbol id="arrow-up" viewBox="0 0 24 24" fill="none" xmlns="http://www.w3.org/2000/svg">
    <path d="M17.9998 15C17.9998 15 13.5809 9.00001 11.9998 9C10.4187 8.99999 5.99988 15 5.99988 15" stroke="currentColor" stroke-width="1.75" stroke-linecap="round" stroke-linejoin="round"/>
  </symbol>
  <symbol id="catalog" viewBox="0 0 24 24" fill="none" xmlns="http://www.w3.org/2000/svg">
    <path d="M3.88886 9.66294C4.39331 10 5.09554 10 6.5 10C7.90447 10 8.6067 10 9.11115 9.66294C9.32953 9.51702 9.51703 9.32952 9.66294 9.11114C10 8.60669 10 7.90446 10 6.5C10 5.09554 10 4.39331 9.66294 3.88886C9.51703 3.67048 9.32953 3.48298 9.11115 3.33706C8.6067 3 7.90447 3 6.5 3C5.09554 3 4.39331 3 3.88886 3.33706C3.67048 3.48298 3.48298 3.67048 3.33707 3.88886C3 4.39331 3 5.09554 3 6.5C3 7.90446 3 8.60669 3.33707 9.11114C3.48298 9.32952 3.67048 9.51702 3.88886 9.66294Z" stroke="currentColor" stroke-width="1.5" stroke-linejoin="round"/>
    <path d="M14.8888 9.66294C15.3933 10 16.0955 10 17.5 10C18.9044 10 19.6067 10 20.1111 9.66294C20.3295 9.51702 20.517 9.32952 20.6629 9.11114C21 8.60669 21 7.90446 21 6.5C21 5.09554 21 4.39331 20.6629 3.88886C20.517 3.67048 20.3295 3.48298 20.1111 3.33706C19.6067 3 18.9044 3 17.5 3C16.0955 3 15.3933 3 14.8888 3.33706C14.6705 3.48298 14.483 3.67048 14.337 3.88886C14 4.39331 14 5.09554 14 6.5C14 7.90446 14 8.60669 14.337 9.11114C14.483 9.32952 14.6705 9.51702 14.8888 9.66294Z" stroke="currentColor" stroke-width="1.5" stroke-linejoin="round"/>
    <path d="M3.88886 20.6629C4.39331 21 5.09554 21 6.5 21C7.90447 21 8.6067 21 9.11115 20.6629C9.32953 20.517 9.51703 20.3295 9.66294 20.1111C10 19.6067 10 18.9045 10 17.5C10 16.0955 10 15.3933 9.66294 14.8889C9.51703 14.6705 9.32953 14.483 9.11115 14.3371C8.6067 14 7.90447 14 6.5 14C5.09554 14 4.39331 14 3.88886 14.3371C3.67048 14.483 3.48298 14.6705 3.33707 14.8889C3 15.3933 3 16.0955 3 17.5C3 18.9045 3 19.6067 3.33707 20.1111C3.48298 20.3295 3.67048 20.517 3.88886 20.6629Z" stroke="currentColor" stroke-width="1.5" stroke-linejoin="round"/>
    <path d="M14.8888 20.6629C15.3933 21 16.0955 21 17.5 21C18.9044 21 19.6067 21 20.1111 20.6629C20.3295 20.517 20.517 20.3295 20.6629 20.1111C21 19.6067 21 18.9045 21 17.5C21 16.0955 21 15.3933 20.6629 14.8889C20.517 14.6705 20.3295 14.483 20.1111 14.3371C19.6067 14 18.9044 14 17.5 14C16.0955 14 15.3933 14 14.8888 14.3371C14.6705 14.483 14.483 14.6705 14.337 14.8889C14 15.3933 14 16.0955 14 17.5C14 18.9045 14 19.6067 14.337 20.1111C14.483 20.3295 14.6705 20.517 14.8888 20.6629Z" stroke="currentColor" stroke-width="1.5" stroke-linejoin="round"/>
  </symbol>
  <symbol id="favorite-add" viewBox="0 0 24 24" fill="none" xmlns="http://www.w3.org/2000/svg">
    <path d="M13.5893 19.9677C12.6399 20.6776 11.3601 20.6776 10.4107 19.9677C7.58942 17.858 2 13.0348 2 8.69444C2 5.82563 4.10526 3.5 7 3.5C8.5 3.5 10 4 12 6C14 4 15.5 3.5 17 3.5C19.8947 3.5 22 5.82563 22 8.69444C22 9.78274 21.6486 10.9014 21.0775 12M14 16H17.5M17.5 16H21M17.5 16V12.5M17.5 16V19.5" stroke="currentColor" stroke-width="1.75" stroke-linecap="round" stroke-linejoin="round"/>
  </symbol>
  <symbol id="favorite-check" viewBox="0 0 24 24" fill="none" xmlns="http://www.w3.org/2000/svg">
    <path d="M13 20.3025C12.1525 20.6505 11.1746 20.5389 10.4107 19.9677C7.58942 17.858 2 13.0348 2 8.69444C2 5.82563 4.10526 3.5 7 3.5C8.5 3.5 10 4 12 6C14 4 15.5 3.5 17 3.5C19.8947 3.5 22 5.82563 22 8.69444C22 9.12591 21.9448 9.56214 21.8425 10M14 17C14 17 15 17 16 19C16 19 19.1765 14 22 13" stroke="currentColor" stroke-width="1.75" stroke-linecap="round" stroke-linejoin="round"/>
  </symbol>
  <symbol id="favorite-remove" viewBox="0 0 24 24" fill="none" xmlns="http://www.w3.org/2000/svg">
    <path d="M13.5893 19.9677C12.6399 20.6776 11.3601 20.6776 10.4107 19.9677C7.58942 17.858 2 13.0348 2 8.69444C2 5.82563 4.10526 3.5 7 3.5C8.5 3.5 10 4 12 6C14 4 15.5 3.5 17 3.5C19.8947 3.5 22 5.82563 22 8.69444C22 9.45389 21.8289 10.2281 21.5314 11" stroke="currentColor" stroke-width="1.75" stroke-linecap="round" stroke-linejoin="round"/>
    <path d="M16 13.5L18.5 16M18.5 16L21 18.5M18.5 16L21 13.5M18.5 16L16 18.5" stroke="currentColor" stroke-width="1.75" stroke-linecap="round" stroke-linejoin="round"/>
  </symbol>
  <symbol id="favorite" viewBox="0 0 24 24" fill="none" xmlns="http://www.w3.org/2000/svg">
    <path d="M10.4112 20.4677C7.58991 18.358 2.00049 13.5348 2.00049 9.19444C2.00049 6.32563 4.10575 4 7.00049 4C8.50049 4 10.0005 4.5 12.0005 6.5C14.0005 4.5 15.5005 4 17.0005 4C19.8952 4 22.0005 6.32563 22.0005 9.19444C22.0005 13.5348 16.4111 18.358 13.5898 20.4677C12.6404 21.1776 11.3606 21.1776 10.4112 20.4677Z" stroke="currentColor" stroke-width="1.75" stroke-linecap="round" stroke-linejoin="round"/>
  </symbol>
  <symbol id="home" viewBox="0 0 24 24" fill="none" xmlns="http://www.w3.org/2000/svg">
    <path d="M15.0002 17C14.2007 17.6224 13.1504 18 12.0002 18C10.8499 18 9.79971 17.6224 9.00018 17M3 11.9896V14.5C3 17.7998 3 19.4497 4.02513 20.4749C5.05025 21.5 6.70017 21.5 10 21.5H14C17.2998 21.5 18.9497 21.5 19.9749 20.4749C21 19.4497 21 17.7998 21 14.5V11.9896C21 10.3083 21 9.46773 20.6441 8.74005C20.2882 8.01237 19.6247 7.49628 18.2976 6.46411L16.2976 4.90855C14.2331 3.30285 13.2009 2.5 12 2.5C10.7991 2.5 9.76689 3.30285 7.70242 4.90855L5.70241 6.46411C4.37533 7.49628 3.71179 8.01237 3.3559 8.74005C3 9.46773 3 10.3083 3 11.9896Z" stroke="currentColor" stroke-width="1.5" stroke-linecap="round" stroke-linejoin="round"/>
  </symbol>
  <symbol id="placeholder" viewBox="0 0 24 24" fill="none" xmlns="http://www.w3.org/2000/svg">
    <path d="M14 2.20004C13.3538 2.06886 12.6849 2 12 2C11.3151 2 10.6462 2.06886 10 2.20004M21.8 10C21.9311 10.6462 22 11.3151 22 12C22 12.6849 21.9311 13.3538 21.8 14M14 21.8C13.3538 21.9311 12.6849 22 12 22C11.3151 22 10.6462 21.9311 10 21.8M2.20004 14C2.06886 13.3538 2 12.6849 2 12C2 11.3151 2.06886 10.6462 2.20004 10M17.5 3.64702C18.6332 4.39469 19.6053 5.36678 20.353 6.5M20.353 17.5C19.6053 18.6332 18.6332 19.6053 17.5 20.353M6.5 20.353C5.36678 19.6053 4.39469 18.6332 3.64702 17.5M3.64702 6.5C4.39469 5.36678 5.36678 4.39469 6.5 3.64702" stroke="currentColor" stroke-width="1.5" stroke-linecap="round" stroke-linejoin="round"/>
  </symbol>
  <symbol id="shopping-basket" viewBox="0 0 24 24" fill="none" xmlns="http://www.w3.org/2000/svg">
    <path d="M16 9.5C16 5.63401 14.2091 2 12 2C9.79086 2 8 5.63401 8 9.5M8 7H16C17.8856 7 18.8284 7 19.4142 7.58579C20 8.17157 20 9.11438 20 11V15C20 18.2998 20 19.9497 18.9749 20.9749C17.9497 22 16.2998 22 13 22H11C7.70017 22 6.05025 22 5.02513 20.9749C4 19.9497 4 18.2998 4 15V11C4 9.11438 4 8.17157 4.58579 7.58579C5.17157 7 6.11438 7 8 7Z" stroke="currentColor" stroke-width="1.5" stroke-linecap="round" stroke-linejoin="round"/>
  </symbol>
  <symbol id="star" viewBox="0 0 25 24" fill="none" xmlns="http://www.w3.org/2000/svg">
    <path d="M12.5 19.2371L4.77392 24L6.87434 15.1111L0 9.1675L9.0234 8.43781L12.5 0L15.9766 8.43781L25 9.1675L18.1257 15.1111L20.2261 24L12.5 19.2371Z" fill="currentColor"/>
  </symbol>
</svg>
